<svg viewBox="0 0 408.85 408.85" xmlns="http://www.w3.org/2000/svg"><path d="m192.47 0h24a20.85 20.85 0 0 0 3.08.65c24.94 1.66 48.87 7.59 71.28 18.57 62.88 30.85 101.33 80.78 114.8 149.61 1.52 7.78 2.17 15.73 3.22 23.59v24a27.13 27.13 0 0 0 -.67 3.44c-2 28.53-9.39 55.64-23.38 80.52-37.65 67-95.07 103.41-171.79 108.14a187.29 187.29 0 0 1 -104.07-23.55c-67.28-37.51-103.78-95.07-108.56-171.97-2.29-36.85 5.83-72 23.62-104.43q47.58-86.49 144.83-105.34c7.8-1.5 15.76-2.17 23.64-3.23zm-13.57 204.28c0-16.49 0-33 0-49.48 0-9.2-5.11-14.23-14.38-14.27-7.72 0-15.43-.07-23.15 0-8.22.08-13.52 5.29-13.53 13.49q-.09 50.28 0 100.56c0 8.43 5.29 13.59 13.78 13.66 7.45.07 14.9 0 22.35 0 10.05 0 14.94-4.88 15-14.91q-.05-24.51-.07-49.05zm51.1.12c0 16.76-.05 33.52 0 50.28 0 8.25 5.26 13.48 13.45 13.57q12 .13 24 0c8.43-.08 13.64-5.29 13.65-13.78q.07-50.08 0-100.16c0-8.49-5.23-13.7-13.66-13.78-7.58-.07-15.16 0-22.74 0-9.74 0-14.66 5-14.67 14.79q-.03 24.54-.03 49.08z"/></svg>