<svg viewBox="0 0 408.89 408.95" xmlns="http://www.w3.org/2000/svg"><path d="m216.45 409h-24a21.92 21.92 0 0 0 -3.08-.65c-28.53-1.95-55.65-9.3-80.56-23.25-67.15-37.68-103.69-95.18-108.43-172.1a187.31 187.31 0 0 1 23.74-104.43c37.53-67 95-103.46 171.77-108.2 36.87-2.27 72 5.85 104.46 23.68q86.47 47.58 105.32 144.86c1.49 7.79 2.16 15.74 3.22 23.61v24a27.52 27.52 0 0 0 -.68 3.44c-2 28.52-9.53 55.54-23.33 80.53-31.8 57.58-80.1 92.84-144.8 105.27-7.79 1.46-15.75 2.14-23.63 3.24zm-63.08-204.63v61.85c0 5.6 1.52 10.29 6.55 13.2s9.9 1.78 14.64-1.19q49.5-31 99-61.94c10.17-6.37 10.12-17.26-.11-23.66q-49.33-30.9-98.71-61.72c-4.71-3-9.47-4.3-14.62-1.45s-6.81 7.7-6.79 13.45c.09 20.49.04 40.97.04 61.46z"/></svg>